# xmcd
#
# Track frame offsets:
#	150
#	22286
#	39515
#	53203
#	72906
#	94360
#	112067
#	124747
#	147512
#	169420
#
# Disc length: 2410 seconds
#
# Revision: 1
# Processed by: cddbd v1.5.1PL2 Copyright (c) Steve Scherf et al.
# Submitted via: audiograbber 1.83.01
#
DISCID=9c09680a
DTITLE=Little Jenny and the Blue Beans - Hot Spicy Dish
DYEAR=2006
DGENRE=
TTITLE0=You need Water
TTITLE1=I Ain't No Leftover
TTITLE2=Honourable Man
TTITLE3=Autumn Blues
TTITLE4=It's Alright
TTITLE5=Boys Don't Cry
TTITLE6=Good Rocking Daddy
TTITLE7=Another Woman
TTITLE8=Raging Storm
TTITLE9=Unless It's Really True
EXTD=
EXTT0=
EXTT1=
EXTT2=
EXTT3=
EXTT4=
EXTT5=
EXTT6=
EXTT7=
EXTT8=
EXTT9=
PLAYORDER=
